<?xml version="1.0" encoding="utf-8"?>
<!-- Generator: Adobe Illustrator 26.0.1, SVG Export Plug-In . SVG Version: 6.00 Build 0)  -->
<svg version="1.1" id="Layer_1" xmlns="http://www.w3.org/2000/svg" xmlns:xlink="http://www.w3.org/1999/xlink" x="0px" y="0px"
	 viewBox="0 0 786 178" style="enable-background:new 0 0 786 178;" xml:space="preserve">
<style type="text/css">
	.st0{fill:#020202;}
</style>
<g>
	<path class="st0" d="M303.7,97h5.5v30.5L324.6,97h5.2L318,121.8l14.4,33H327l-12.7-28.9l-5.1,9.4v19.5h-5.5V97z"/>
	<path class="st0" d="M371,97h5.4v57.8H371V97z"/>
	<path class="st0" d="M425.9,101.2H415V97h27v4.2h-10.6v53.6h-5.4V101.2z"/>
	<path class="st0" d="M483.7,150.7c-2.2-3.2-3.2-7.6-3.2-13.3v-23c0-5.8,1.1-10.3,3.2-13.4c2.2-3.1,6-4.7,11.4-4.7
		c4.9,0,8.5,1.4,10.6,4.2c2.1,2.8,3.1,6.9,3.1,12.2v3.5h-5.1v-3.4c0-2.8-0.2-5-0.6-6.7c-0.4-1.7-1.3-3.1-2.5-4c-1.2-1-3-1.4-5.4-1.4
		c-2.5,0-4.4,0.5-5.8,1.6c-1.3,1-2.2,2.5-2.7,4.3c-0.5,1.8-0.7,4.2-0.7,7v24.6c0,4.5,0.7,7.7,2,9.8c1.4,2,3.7,3.1,7.2,3.1
		c3.4,0,5.6-1,6.8-3.1c1.1-2.1,1.7-5.2,1.7-9.5v-3.8h5.1v3.4c0,5.5-1,9.8-3.1,12.8c-2,3-5.6,4.5-10.6,4.5
		C489.7,155.5,485.9,153.9,483.7,150.7z"/>
	<path class="st0" d="M547.4,97h5.5v25.6h18.2V97h5.4v57.8h-5.4v-28.1h-18.2v28.1h-5.5V97z"/>
	<path class="st0" d="M615.1,97H636v4.2h-15.4v21.7h12.6v4h-12.6v23.8h15.6v4.1h-21V97z"/>
	<path class="st0" d="M674.7,97h3.9l18.4,44.9V97h4.7v57.8h-3.9l-18.5-45.4v45.4h-4.7V97z"/>
	<path class="st0" d="M744.4,151.3c-2.4-2.8-3.7-6.6-4.1-11.5l4.8-1.4c0.4,4.1,1.3,7.2,2.7,9.4c1.4,2.2,3.7,3.3,7,3.3
		c5.4,0,8.1-2.8,8.1-8.3c0-2.4-0.6-4.5-1.7-6.3c-1.1-1.8-2.9-3.9-5.4-6.2l-10.2-9.8c-1.9-1.7-3.2-3.5-4-5.4c-0.8-1.9-1.2-4-1.2-6.2
		c0-3.9,1.2-7,3.5-9.2c2.4-2.2,5.5-3.2,9.5-3.2c4.3,0,7.6,1.1,9.8,3.4c2.3,2.3,3.6,6,4,11.2l-4.6,1.2c-0.3-3.9-1.1-6.8-2.5-8.7
		c-1.4-1.9-3.6-2.9-6.7-2.9c-2.5,0-4.4,0.6-5.9,1.9c-1.5,1.3-2.2,3.2-2.2,5.7c0,1.6,0.3,3.1,0.9,4.4c0.6,1.3,1.7,2.6,3.1,4.1
		l10.2,9.6c2.6,2.5,4.7,5,6.2,7.6c1.5,2.6,2.2,5.4,2.2,8.4c0,4.2-1.2,7.4-3.6,9.7c-2.4,2.3-5.6,3.4-9.6,3.4
		C750.2,155.5,746.8,154.1,744.4,151.3z"/>
</g>
<g>
	<path class="st0" d="M303.4,19h23.9v28.9h-23.9V19z M321.2,43.1V23.9h-11.6v19.2H321.2z"/>
	<path class="st0" d="M343.7,23.9h-4.9V19h11.1v16.3h-6.2V23.9z"/>
	<path class="st0" d="M363.8,19h11.8c7.6,0,11.4,3.7,11.5,11v17.9H381l0-18.4c0-2-0.4-3.4-1.3-4.3c-0.9-0.9-2.2-1.4-4-1.4H370v24.1
		h-6.2L363.8,19z"/>
	<path class="st0" d="M422.3,43.3v4.6h-24.4v-4.9h14.8V29.5c0-1.9-0.5-3.4-1.4-4.3c-0.9-0.9-2.4-1.4-4.4-1.4h-7.4V19h7.8
		c3.7,0,6.6,0.9,8.6,2.8c2,1.8,3,4.5,3,8v13.1L422.3,43.3z"/>
	<path class="st0" d="M439.2,47c-1.8-1-3.3-2.4-4.3-4.2c-1-1.8-1.5-3.9-1.5-6.3V19h6.2v18c0,1.3,0.2,2.5,0.7,3.5
		c0.5,1,1.2,1.8,2.1,2.3c0.9,0.6,1.9,0.8,3.1,0.8c1.2,0,2.2-0.3,3.1-0.8c0.9-0.6,1.6-1.3,2.1-2.3c0.5-1,0.7-2.2,0.7-3.5v-9
		c0-1.4-0.3-2.5-0.9-3.2c-0.6-0.7-1.5-1.1-2.7-1.1c-0.9,0-1.9,0.2-3,0.7l-0.7-4c0.8-0.5,1.8-0.9,2.8-1.2c1-0.3,2-0.5,3-0.5
		c1.6,0,3,0.4,4.1,1.1c1.2,0.7,2.1,1.7,2.7,3.1c0.6,1.3,0.9,2.9,0.9,4.7v8.9c0,2.4-0.5,4.5-1.5,6.3c-1,1.8-2.4,3.2-4.2,4.2
		c-1.8,1-3.9,1.5-6.3,1.5C443.1,48.5,441,48,439.2,47z"/>
	<path class="st0" d="M472.5,30.7c0.2-1.3,0.5-2.6,1.1-3.7c0.5-1.2,1.2-2.1,1.9-2.8c0.1-0.1,0.3-0.2,0.4-0.3l0-0.1
		c-0.7,0.1-1.5,0.3-2.5,0.6c-1,0.3-1.9,0.5-2.6,0.8l-1.4-4.5c1.9-0.7,4-1.2,6.5-1.6c2.4-0.4,4.7-0.6,6.8-0.6c4.2,0,7.3,1.1,9.5,3.2
		c2.2,2.2,3.3,5.3,3.3,9.5v16.8h-12.3v-4.8h6.1V30.4c0-2.2-0.5-4-1.4-5.1c-1-1.2-2.3-1.8-4.1-1.8c-1.5,0-2.6,0.6-3.6,1.7
		c-0.9,1.1-1.5,2.7-1.7,4.8l-1.9,18h-6.1L472.5,30.7z"/>
	<path class="st0" d="M541.8,35.4c0.6,0.8,0.9,1.6,1.2,2.5c0.2,0.9,0.4,1.8,0.4,2.9v17.3h-5.8v-18c0-1.1-0.3-2.1-0.9-3l-12.2-18h6.9
		l6.7,10.6l5.4-10.6h6.9l-8.7,16L541.8,35.4z"/>
	<path class="st0" d="M583,19V36c0,2.7-0.6,5-1.7,6.9c-1.1,1.9-2.7,3.3-4.7,4.3c-2,1-4.4,1.5-7.1,1.5c-3.6,0-7.2-0.7-10.9-2.1
		L560,42c2.6,1,5,1.6,7.2,1.8c-0.6-0.6-1.1-1.3-1.5-2c-0.4-0.8-0.8-1.6-0.9-2.5L560,19h6.2l4.5,20.8c0.3,1.5,0.7,2.7,1.2,3.6
		c1.6-0.5,2.8-1.4,3.7-2.6c0.9-1.2,1.3-2.8,1.3-4.7V19H583z"/>
	<path class="st0" d="M618.9,43.3v4.6h-24.4v-4.9h14.8V29.5c0-1.9-0.5-3.4-1.4-4.3c-0.9-0.9-2.4-1.4-4.4-1.4h-7.4V19h7.8
		c3.7,0,6.6,0.9,8.6,2.8c2,1.8,3,4.5,3,8v13.1L618.9,43.3z"/>
	<path class="st0" d="M669.6,21.8c1.9,1.8,2.9,4.6,2.9,8.2v17.9h-6.2l0-18.4c0-2-0.4-3.4-1.3-4.3c-0.8-0.9-2.2-1.4-4-1.4h-3.9
		c-0.4,0.9-0.7,1.9-0.9,3.2c-0.2,1.2-0.3,2.4-0.3,3.6v9c0,2.8-0.7,5-2.1,6.5c-1.4,1.5-3.4,2.3-6,2.3c-1,0-2.1-0.1-3.3-0.3v-4.8
		c0.6,0,1.1,0.1,1.6,0.1c1.3,0,2.2-0.3,2.8-1c0.6-0.7,0.9-1.7,0.9-3.1v-8c0-1.3,0.2-2.6,0.5-3.9c0.3-1.4,0.8-2.5,1.4-3.3h-4.9V19
		H661C664.8,19,667.7,19.9,669.6,21.8z"/>
	<path class="st0" d="M707.8,19V36c0,2.7-0.6,5-1.7,6.9c-1.1,1.9-2.7,3.3-4.7,4.3c-2,1-4.4,1.5-7.1,1.5c-3.6,0-7.2-0.7-10.9-2.1
		l1.4-4.5c2.6,1,5,1.6,7.2,1.8c-0.6-0.6-1.1-1.3-1.5-2c-0.4-0.8-0.8-1.6-0.9-2.5L684.8,19h6.2l4.5,20.8c0.3,1.5,0.7,2.7,1.2,3.6
		c1.6-0.5,2.8-1.4,3.7-2.6c0.9-1.2,1.3-2.8,1.3-4.7V19H707.8z"/>
	<path class="st0" d="M718.4,48.1v-5.6c0.6,0.1,1.2,0.1,1.9,0.1c2,0,3.7-0.6,5-1.7c1.3-1.1,2.3-2.5,2.8-4.3V23.9h-6.4V19h12.5v14.8
		c0,1.5,0.2,3,0.5,4.5l2,9.6h-5.7l-1.7-7.7h-0.1c-0.2,1.4-0.8,2.8-1.6,4c-0.9,1.2-1.9,2.2-3.2,2.9c-1.3,0.7-2.7,1.1-4.3,1.1
		C719.3,48.2,718.8,48.2,718.4,48.1z"/>
	<path class="st0" d="M769.3,22.9l-10,25h-6.6l9.9-24.1h-16.2V10.6h6.2V19h16.7V22.9z"/>
</g>
<rect x="303.4" y="72.1" class="st0" width="464.6" height="2.7"/>
<g>
	<path class="st0" d="M140,32.2c0,7.6-2.4,15.6-7.2,24c-4.8,8.3-11.5,15.6-20,21.8c-8.5,6.2-17.3,10.1-26.3,11.6
		c-5.2,10.8-9,18.3-11.3,22.6l-2.7,4.5c16.9,4.3,30.9,10.8,42,19.6c5.6,4.5,9.4,10,11.4,16.5c1,3.3,1.5,6.2,1.5,8.6
		c0,2.4-0.4,4.4-1.3,6c-0.9,1.6-1.9,2.7-3.1,3.4c-1.2,0.6-2,0.9-2.6,0.9c-0.5,0-0.8-0.2-0.8-0.7c0-0.4,0.5-1.7,1.5-3.9
		c1-2.2,1.5-4.7,1.5-7.6s-0.6-6.1-1.8-9.6c-1.2-3.5-3.4-6.7-6.7-9.7c-3.2-2.9-7.8-5.7-13.5-8.3c-5.8-2.6-10.8-4.4-15-5.5
		c-4.2-1.1-9.9-2.3-17-3.8c-7.3,10.4-14.8,17.6-22.7,21.5c-4.7,2.4-8.9,3.6-12.5,3.6c-3.6,0-6.9-0.7-9.7-2.2
		c-4.9-2.5-7.3-6.2-7.3-11.2c0-5,3.2-9.4,9.6-13.2c7.3-4.4,17.1-6.6,29.5-6.6c4.4,0,8.5,0.4,12,1.1c3.8-6.1,8.3-14.6,13.5-25.4
		c-0.5,0-1,0-1.4,0c-5.4,0-10.4-0.9-15-2.8c-4.6-1.8-8.3-4.3-11-7.5c-3.6-4.1-5.4-8.8-5.4-14c0-2.7,0.7-5.7,2-8.8
		c1.3-3.2,4.3-6.4,8.8-9.6c4.6-3.2,10.4-5.7,17.4-7.4c1.1-0.3,2-0.4,2.8-0.4s1.2,0.2,1.4,0.7c0.2,0.4-0.2,0.8-1,1.2
		c-0.9,0.4-1.8,0.6-2.9,0.8c-3.7,0.4-7.1,1.7-10.2,3.8C61,49.8,57.2,55.3,55,62.8c-0.5,1.8-0.8,3.4-0.8,5.1c0,1.6,0.3,3.6,0.9,5.9
		c0.6,2.3,1.9,4.6,3.8,7c2,2.4,4.6,4.1,8,5.1c3.4,1,6.3,1.4,8.8,1.4c2.5,0,4.8-0.1,7-0.4l10.9-28.2c7.5-19.8,16.5-32,26.9-36.6
		c2.7-1.1,5.4-1.7,8-1.7c2.6,0,5.1,0.9,7.4,2.6c2.3,1.7,3.6,3.8,3.8,6.3C139.9,30.3,140,31.3,140,32.2z M63.6,121.9
		c-4.2-1-8.5-1.4-12.9-1.4c-4.4,0-9,0.7-13.7,2c-9.8,2.6-15.6,6.4-17.3,11.2c-0.3,0.9-0.5,1.7-0.5,2.5c0,2.3,1.2,4.1,3.7,5.6
		c2.4,1.4,5.1,2.2,8,2.2c4,0,8.4-1.1,13.1-3.4C51,136.9,57.6,130.7,63.6,121.9z M134.6,32.4c0-3.3-1.5-5-4.5-5
		c-4.4,0-9.7,3.9-15.9,11.7c-4.9,6.2-9.5,13.8-14,22.6c-4.5,8.8-8.5,17-12,24.4c11.9-2.7,22.6-9.4,32.1-20.1
		C129.8,55.3,134.6,44.1,134.6,32.4z"/>
	<path class="st0" d="M129.9,132.5c-1.2,1.1-2.5,1.6-4,1.6c-1.5,0-2.6-0.5-3.3-1.4c-0.8-0.9-1.2-1.7-1.2-2.4c0-2.4,0.7-4.1,2-5.3
		c1.4-1.1,2.8-1.7,4.2-1.7c1.5,0,2.6,0.5,3.3,1.4s1.2,1.7,1.2,2.4c0,0.7-0.1,1.5-0.3,2.4C131.7,130.5,131,131.5,129.9,132.5z"/>
	<path class="st0" d="M267.9,107c0,5-1.8,9.7-5.3,14c-5,6.1-11.6,10.6-19.9,13.3c-6.1,2-12.1,3-17.9,3c-2.1,0-4.2-0.1-6.3-0.4
		c-13.4-1.8-24.8-4.8-34.1-9.1c-8.5,6.4-17.4,9.6-26.8,9.6c-11.1,0-18-3.2-20.6-9.5c-0.6-1.5-0.9-3.2-0.9-5.3c0-2,1-4.2,2.9-6.4
		c3.1-3.5,7.3-5.3,12.8-5.3c3.6,0,6.8,0.5,9.7,1.6c2.9,1.1,6.5,2.8,10.8,5.1c4.3,2.4,7.4,4.1,9.5,5.1c3.8-3.8,7.6-9,11.7-15.7
		c4-6.7,7.5-13.3,10.6-19.7c3-6.4,6.9-13.6,11.6-21.5c4.7-7.9,9.5-14.6,14.3-20.1l7.3-8.6c-6.7-1.2-14.2-1.8-22.3-1.8
		c-8.1,0-17,1.1-26.8,3.3c-13.3,2.9-23.6,8.8-30.7,17.6c-4.4,5.4-6.5,10.4-6.5,15.3c0,6.4,3,10.6,9.1,12.5c2.1,0.6,4,0.9,5.6,0.9
		c1.6,0,3.5-0.3,5.6-0.9c2.1-0.6,4.2-1.9,6.2-3.9c2-2,3.5-3.9,4.4-5.7c0.9-1.8,1.3-3.2,1.3-4.1c0-0.9,0.4-1.4,1.3-1.4
		c0.9,0.1,1.3,0.7,1.4,1.8v0.1c-0.9,6.4-4.3,11.3-10,14.6c-3.5,1.9-7,2.9-10.5,2.9l-6.7-1.2c-9.1-3.2-13.6-9.3-13.6-18.2
		c0-6.1,2.6-12,7.8-17.9c8.4-9.7,20.7-15.7,36.9-18c7.9-1.1,16-1.7,24.5-1.7c8.5,0,17.1,1,25.9,2.9c2.4-2.1,4.5-3.5,6.3-4.2
		c1.8-0.7,2.8-1.1,3.1-1.1c0.3,0,0.5,0,0.6,0.1c0.5,0,0.6,0.3,0.3,0.9c-0.3,0.6-1.2,1.4-2.8,2.4c-1.6,1.1-2.5,2-2.9,2.9
		c11.6,3.1,20,7.5,25.1,13.2c2.7,3.2,4.1,6.4,4.1,9.7s-0.9,6.6-2.8,9.9c-2.5,4.4-6.5,7.7-12,9.9c-5.6,2.2-11.1,3.5-16.8,3.8
		c5.5,1.8,10.5,4.2,15.2,7.4C264.6,93.6,267.9,99.5,267.9,107z M179.2,125.3c-10-4.9-16.3-7.9-19-8.8c-2.6-1-5.3-1.4-7.9-1.4
		c-2.6,0-4.7,0.9-6.2,2.8c-1.5,1.9-2.3,3.6-2.3,5.1c0,1.5,0.3,3,1,4.4c1.9,3.9,5.8,5.9,11.8,5.9
		C164.7,133.3,172.3,130.7,179.2,125.3z M223.1,133.6c9.6,0,17.7-2.8,24.3-8.4c7.3-6,10.9-12.4,10.9-19.3c0-7.2-3.7-12.6-11.1-16.3
		c-2.7-1.3-6.1-2.6-10.1-3.9c-4-1.3-7.2-2.3-9.6-3.2c-2.4-0.9-3.8-1.7-4.2-2.5c0-1.7,1.2-2.5,3.7-2.6c1.6,0,4.1,0.1,7.4,0.4
		c3.3,0.3,6.2,0.4,8.6,0.3c2.4,0,5.3-0.9,8.6-2.6c3.4-1.7,6.3-3.9,8.6-6.6c3.8-4.4,5.8-8.5,5.8-12.4c0-8.2-7.5-14.2-22.5-17.8
		c-4.5,6.4-12.6,19.9-24.3,40.6c-11.7,20.7-20.7,34.5-27,41.5l-4.9,4.7c9.6,4.1,20,6.8,31.1,7.9
		C220.1,133.5,221.7,133.6,223.1,133.6z"/>
</g>
</svg>
